<svg id="Layer_1" xmlns="http://www.w3.org/2000/svg" width="600" height="400" viewBox="0.5 0.5 600 400"><path d="M43.261 165.3V76.771h12.478l28.372 44.79c6.567 10.376 11.69 19.702 15.893 28.765l.263-.132c-1.051-11.821-1.314-22.592-1.314-36.384V76.77h10.77v88.53H98.165l-28.108-44.921c-6.173-9.851-12.084-19.965-16.55-29.553l-.394.131c.657 11.165.92 21.804.92 36.515V165.3H43.261zm143.561-32.312c0 23.511-16.287 33.757-31.655 33.757-17.207 0-30.473-12.61-30.473-32.707 0-21.278 13.923-33.756 31.524-33.756 18.257 0 30.604 13.267 30.604 32.706zm-50.438.657c0 13.923 8.012 24.431 19.308 24.431 11.033 0 19.308-10.377 19.308-24.694 0-10.77-5.385-24.43-19.045-24.43s-19.571 12.609-19.571 24.693zm105.732-49.781c.131 3.94-2.758 7.093-7.355 7.093-4.072 0-6.962-3.153-6.962-7.093 0-4.072 3.021-7.225 7.224-7.225 4.335.001 7.093 3.153 7.093 7.225zM229.244 165.3v-63.573h11.558V165.3h-11.558zm30.734-46.366c0-6.568-.132-11.953-.526-17.207h10.114l.526 10.245h.394c3.546-6.042 9.457-11.69 19.965-11.69 8.67 0 15.237 5.254 17.996 12.741h.262c1.97-3.546 4.466-6.305 7.093-8.274 3.809-2.89 8.012-4.466 14.055-4.466 8.406 0 20.884 5.517 20.884 27.584V165.3h-11.296v-35.989c0-12.216-4.466-19.571-13.791-19.571-6.568 0-11.69 4.86-13.661 10.508-.525 1.576-.919 3.678-.919 5.779V165.3h-11.296v-38.091c0-10.114-4.467-17.469-13.267-17.469-7.225 0-12.478 5.779-14.317 11.558-.657 1.708-.919 3.678-.919 5.648V165.3h-11.296v-46.366h-.001zM404.722 165.3l-.919-8.012h-.393c-3.548 4.991-10.377 9.457-19.44 9.457-12.873 0-19.44-9.064-19.44-18.258 0-15.368 13.66-23.774 38.223-23.643v-1.314c0-5.254-1.445-14.711-14.449-14.711-5.91 0-12.083 1.839-16.55 4.729l-2.626-7.618c5.253-3.415 12.872-5.648 20.884-5.648 19.44 0 24.168 13.266 24.168 26.007v23.774c0 5.517.262 10.902 1.051 15.237h-10.509zm-1.707-32.443c-12.609-.263-26.927 1.97-26.927 14.317 0 7.487 4.992 11.033 10.902 11.033 8.276 0 13.529-5.254 15.368-10.639.394-1.182.657-2.496.657-3.678v-11.033zm84.587-31.13c-.262 4.597-.525 9.72-.525 17.469v36.909c0 14.579-2.891 23.512-9.063 29.028-6.173 5.779-15.106 7.618-23.118 7.618-7.618 0-16.024-1.839-21.148-5.254l2.891-8.799c4.203 2.626 10.77 4.991 18.651 4.991 11.821 0 20.49-6.173 20.49-22.197v-7.093h-.262c-3.546 5.911-10.377 10.64-20.227 10.64-15.762 0-27.057-13.398-27.057-30.999 0-21.541 14.054-33.756 28.633-33.756 11.033 0 17.075 5.779 19.834 11.033h.262l.525-9.589 10.114-.001zm-11.953 25.088c0-1.97-.132-3.678-.657-5.254-2.102-6.699-7.75-12.216-16.156-12.216-11.033 0-18.915 9.326-18.915 24.037 0 12.478 6.305 22.855 18.783 22.855 7.093 0 13.529-4.466 16.025-11.821.657-1.97.919-4.203.919-6.173v-11.428h.001zm37.037 8.8c.264 15.63 10.246 22.066 21.804 22.066 8.274 0 13.266-1.445 17.601-3.284l1.969 8.275c-4.071 1.839-11.032 3.941-21.146 3.941-19.572 0-31.261-12.872-31.261-32.049s11.296-34.282 29.815-34.282c20.753 0 26.27 18.257 26.27 29.948 0 2.364-.263 4.203-.394 5.385h-44.658zm33.889-8.275c.131-7.356-3.021-18.783-16.025-18.783-11.69 0-16.813 10.77-17.732 18.783h33.757zM100.266 322.915l-.919-8.012h-.394c-3.546 4.991-10.377 9.457-19.44 9.457-12.872 0-19.439-9.063-19.439-18.258 0-15.367 13.66-23.773 38.222-23.643v-1.314c0-5.254-1.445-14.71-14.449-14.71-5.91 0-12.084 1.839-16.55 4.728l-2.627-7.618c5.254-3.416 12.873-5.649 20.884-5.649 19.44 0 24.168 13.266 24.168 26.008v23.773c0 5.517.263 10.902 1.051 15.237l-10.507.001zm-1.707-32.443c-12.609-.262-26.927 1.97-26.927 14.317 0 7.487 4.991 11.033 10.902 11.033 8.274 0 13.529-5.254 15.368-10.639.394-1.183.657-2.495.657-3.678v-11.033zm33.23-31.129l12.478 35.726c2.102 5.779 3.809 11.033 5.122 16.288h.394c1.445-5.254 3.283-10.508 5.385-16.288l12.347-35.726h12.084l-24.956 63.572H143.61l-24.168-63.572h12.347zm93.386 63.572l-.919-8.012h-.394c-3.546 4.991-10.377 9.457-19.44 9.457-12.872 0-19.439-9.063-19.439-18.258 0-15.367 13.66-23.773 38.222-23.643v-1.314c0-5.254-1.445-14.71-14.449-14.71-5.91 0-12.084 1.839-16.55 4.728l-2.627-7.618c5.254-3.416 12.873-5.649 20.884-5.649 19.44 0 24.168 13.266 24.168 26.008v23.773c0 5.517.263 10.902 1.051 15.237l-10.507.001zm-1.707-32.443c-12.609-.262-26.927 1.97-26.927 14.317 0 7.487 4.991 11.033 10.902 11.033 8.274 0 13.529-5.254 15.368-10.639.394-1.183.657-2.495.657-3.678v-11.033zm42.686-48.993c.131 3.941-2.758 7.093-7.355 7.093-4.072 0-6.961-3.152-6.961-7.093 0-4.072 3.021-7.225 7.224-7.225 4.334.001 7.092 3.153 7.092 7.225zm-12.872 81.436v-63.572h11.558v63.572h-11.558zm30.734-93.258h11.558v93.258h-11.558v-93.258zm66.198 93.258l-.919-8.012h-.393c-3.546 4.991-10.377 9.457-19.44 9.457-12.873 0-19.44-9.063-19.44-18.258 0-15.367 13.661-23.773 38.223-23.643v-1.314c0-5.254-1.445-14.71-14.449-14.71-5.91 0-12.083 1.839-16.55 4.728l-2.626-7.618c5.253-3.416 12.872-5.649 20.884-5.649 19.44 0 24.168 13.266 24.168 26.008v23.773c0 5.517.262 10.902 1.051 15.237l-10.509.001zm-1.707-32.443c-12.609-.262-26.927 1.97-26.927 14.317 0 7.487 4.992 11.033 10.902 11.033 8.276 0 13.529-5.254 15.368-10.639.394-1.183.657-2.495.657-3.678v-11.033zm29.289 32.443c.262-4.335.525-10.771.525-16.418v-76.84h11.428v39.93h.262c4.073-7.093 11.428-11.69 21.673-11.69 15.762 0 26.927 13.134 26.795 32.443 0 22.722-14.316 34.019-28.503 34.019-9.194 0-16.549-3.548-21.278-11.954h-.394l-.525 10.508h-9.983v.002zm11.953-25.481c0 1.444.262 2.89.525 4.203 2.233 8.012 8.932 13.529 17.339 13.529 12.083 0 19.308-9.852 19.308-24.43 0-12.741-6.568-23.643-18.914-23.643-7.881 0-15.237 5.385-17.601 14.185-.262 1.314-.657 2.89-.657 4.728v11.428zm63.306-67.777h11.56v93.258h-11.56v-93.258zm37.433 63.573c.264 15.63 10.246 22.067 21.804 22.067 8.274 0 13.266-1.445 17.601-3.284l1.969 8.274c-4.071 1.839-11.032 3.941-21.146 3.941-19.572 0-31.261-12.872-31.261-32.049s11.296-34.282 29.815-34.282c20.753 0 26.27 18.258 26.27 29.947 0 2.365-.262 4.203-.394 5.386h-44.658zm33.889-8.275c.131-7.355-3.021-18.782-16.025-18.782-11.69 0-16.813 10.77-17.732 18.782h33.757z" fill="#454545"/></svg>